<svg width="100%" height="100%" viewBox="0 0 1440 700" id="svg" xmlns="http://www.w3.org/2000/svg" class="transition duration-300 ease-in-out delay-150"><path d="M 0,700 C 0,700 0,175 0,175 C 77.4641148325359,216.4736842105263 154.9282296650718,257.9473684210526 241,239 C 327.0717703349282,220.05263157894737 421.7511961722487,140.6842105263158 526,137 C 630.2488038277513,133.3157894736842 744.066985645933,205.3157894736842 841,221 C 937.933014354067,236.6842105263158 1017.9808612440193,196.05263157894737 1115,179 C 1212.0191387559807,161.94736842105263 1326.0095693779904,168.4736842105263 1440,175 C 1440,175 1440,700 1440,700 Z" stroke="none" stroke-width="0" fill="#1f2a40" fill-opacity="0.4" class="transition-all duration-300 ease-in-out delay-150 path-0"></path><path d="M 0,700 C 0,700 0,350 0,350 C 124.9377990430622,378.8325358851675 249.8755980861244,407.665071770335 335,395 C 420.1244019138756,382.334928229665 465.4354066985645,328.17224880382776 563,303 C 660.5645933014355,277.82775119617224 810.3827751196173,281.6459330143541 903,307 C 995.6172248803827,332.3540669856459 1031.0334928229663,379.24401913875596 1111,390 C 1190.9665071770337,400.75598086124404 1315.4832535885168,375.37799043062205 1440,350 C 1440,350 1440,700 1440,700 Z" stroke="none" stroke-width="0" fill="#1f2a40" fill-opacity="0.53" class="transition-all duration-300 ease-in-out delay-150 path-1"></path><path d="M 0,700 C 0,700 0,525 0,525 C 75.15789473684208,507.22966507177034 150.31578947368416,489.4593301435407 244,481 C 337.68421052631584,472.5406698564593 449.8947368421053,473.3923444976076 549,502 C 648.1052631578947,530.6076555023924 734.1052631578948,586.9712918660288 823,582 C 911.8947368421052,577.0287081339712 1003.6842105263158,510.7224880382775 1107,491 C 1210.3157894736842,471.2775119617225 1325.157894736842,498.1387559808612 1440,525 C 1440,525 1440,700 1440,700 Z" stroke="none" stroke-width="0" fill="#1f2a40" fill-opacity="1" class="transition-all duration-300 ease-in-out delay-150 path-2"></path></svg>